<?xml version="1.0" encoding="UTF-8"?>
<svg xmlns="http://www.w3.org/2000/svg" xmlns:xlink="http://www.w3.org/1999/xlink" width="15px" height="15px" viewBox="0 0 15 15" version="1.1">
<defs>
<linearGradient id="linear0" gradientUnits="userSpaceOnUse" x1="70.79" y1="12.39" x2="6.447" y2="74.47" gradientTransform="matrix(0.194805,0,0,0.1875,-0.253247,-0.000766125)">
<stop offset="0.048" style="stop-color:rgb(100%,95.686275%,30.980392%);stop-opacity:1;"/>
<stop offset="0.111" style="stop-color:rgb(100%,90.980392%,27.843137%);stop-opacity:1;"/>
<stop offset="0.225" style="stop-color:rgb(100%,78.431373%,18.823529%);stop-opacity:1;"/>
<stop offset="0.368" style="stop-color:rgb(100%,59.607843%,5.490196%);stop-opacity:1;"/>
<stop offset="0.401" style="stop-color:rgb(100%,54.509804%,8.627451%);stop-opacity:1;"/>
<stop offset="0.462" style="stop-color:rgb(100%,40.392157%,16.470588%);stop-opacity:1;"/>
<stop offset="0.534" style="stop-color:rgb(100%,21.176471%,27.843137%);stop-opacity:1;"/>
<stop offset="0.705" style="stop-color:rgb(89.019608%,8.235294%,52.941176%);stop-opacity:1;"/>
</linearGradient>
<radialGradient id="radial0" gradientUnits="userSpaceOnUse" cx="-7907" cy="-8515" fx="-7907" fy="-8515" r="80.8" gradientTransform="matrix(0.194805,0,0,0.1875,1553.376623,1598.25)">
<stop offset="0.129" style="stop-color:rgb(100%,74.117647%,30.980392%);stop-opacity:1;"/>
<stop offset="0.186" style="stop-color:rgb(100%,67.45098%,19.215686%);stop-opacity:1;"/>
<stop offset="0.247" style="stop-color:rgb(100%,61.568627%,9.019608%);stop-opacity:1;"/>
<stop offset="0.283" style="stop-color:rgb(100%,59.607843%,5.490196%);stop-opacity:1;"/>
<stop offset="0.403" style="stop-color:rgb(100%,33.72549%,23.137255%);stop-opacity:1;"/>
<stop offset="0.467" style="stop-color:rgb(100%,21.568627%,31.372549%);stop-opacity:1;"/>
<stop offset="0.71" style="stop-color:rgb(96.078431%,8.235294%,42.352941%);stop-opacity:1;"/>
<stop offset="0.782" style="stop-color:rgb(92.156863%,3.137255%,47.058824%);stop-opacity:1;"/>
<stop offset="0.86" style="stop-color:rgb(89.803922%,0%,50.196078%);stop-opacity:1;"/>
</radialGradient>
<radialGradient id="radial1" gradientUnits="userSpaceOnUse" cx="-7937" cy="-8482" fx="-7937" fy="-8482" r="80.8" gradientTransform="matrix(0.194805,0,0,0.1875,1553.376623,1598.25)">
<stop offset="0.3" style="stop-color:rgb(58.823529%,5.490196%,9.411765%);stop-opacity:1;"/>
<stop offset="0.351" style="stop-color:rgb(69.411765%,9.803922%,15.294118%);stop-opacity:0.741176;"/>
<stop offset="0.435" style="stop-color:rgb(85.882353%,16.078431%,23.921569%);stop-opacity:0.341176;"/>
<stop offset="0.497" style="stop-color:rgb(96.078431%,20%,29.411765%);stop-opacity:0.0941176;"/>
<stop offset="0.53" style="stop-color:rgb(100%,21.568627%,31.372549%);stop-opacity:0;"/>
</radialGradient>
<radialGradient id="radial2" gradientUnits="userSpaceOnUse" cx="-7927" cy="-8533" fx="-7927" fy="-8533" r="58.53" gradientTransform="matrix(0.194805,0,0,0.1875,1553.376623,1598.25)">
<stop offset="0.132" style="stop-color:rgb(100%,95.686275%,30.980392%);stop-opacity:1;"/>
<stop offset="0.252" style="stop-color:rgb(100%,86.27451%,24.313725%);stop-opacity:1;"/>
<stop offset="0.506" style="stop-color:rgb(100%,61.568627%,7.058824%);stop-opacity:1;"/>
<stop offset="0.526" style="stop-color:rgb(100%,59.607843%,5.490196%);stop-opacity:1;"/>
</radialGradient>
<radialGradient id="radial3" gradientUnits="userSpaceOnUse" cx="-7946" cy="-8461" fx="-7946" fy="-8461" r="38.47" gradientTransform="matrix(0.194805,0,0,0.1875,1553.376623,1598.25)">
<stop offset="0.353" style="stop-color:rgb(22.745098%,55.686275%,90.196078%);stop-opacity:1;"/>
<stop offset="0.472" style="stop-color:rgb(36.078431%,47.45098%,94.117647%);stop-opacity:1;"/>
<stop offset="0.669" style="stop-color:rgb(56.470588%,34.901961%,100%);stop-opacity:1;"/>
<stop offset="1" style="stop-color:rgb(75.686275%,22.352941%,90.196078%);stop-opacity:1;"/>
</radialGradient>
<radialGradient id="radial4" gradientUnits="userSpaceOnUse" cx="-7936" cy="-8492" fx="-7936" fy="-8492" r="20.4" gradientTransform="matrix(0.189351,-0.0440625,0.0535714,0.213375,1965.584416,1468.875)">
<stop offset="0.206" style="stop-color:rgb(56.470588%,34.901961%,100%);stop-opacity:0;"/>
<stop offset="0.278" style="stop-color:rgb(54.901961%,30.980392%,95.294118%);stop-opacity:0.0627451;"/>
<stop offset="0.747" style="stop-color:rgb(46.666667%,8.627451%,65.882353%);stop-opacity:0.45098;"/>
<stop offset="0.975" style="stop-color:rgb(43.137255%,0%,54.509804%);stop-opacity:0.6;"/>
</radialGradient>
<radialGradient id="radial5" gradientUnits="userSpaceOnUse" cx="-7938" cy="-8518" fx="-7938" fy="-8518" r="27.68" gradientTransform="matrix(0.194805,0,0,0.1875,1553.376623,1598.25)">
<stop offset="0" style="stop-color:rgb(100%,88.627451%,14.901961%);stop-opacity:1;"/>
<stop offset="0.121" style="stop-color:rgb(100%,85.882353%,15.294118%);stop-opacity:1;"/>
<stop offset="0.295" style="stop-color:rgb(100%,78.431373%,16.470588%);stop-opacity:1;"/>
<stop offset="0.502" style="stop-color:rgb(100%,66.27451%,18.823529%);stop-opacity:1;"/>
<stop offset="0.732" style="stop-color:rgb(100%,49.411765%,21.568627%);stop-opacity:1;"/>
<stop offset="0.792" style="stop-color:rgb(100%,44.313725%,22.352941%);stop-opacity:1;"/>
</radialGradient>
<radialGradient id="radial6" gradientUnits="userSpaceOnUse" cx="-7916" cy="-8536" fx="-7916" fy="-8536" r="118.1" gradientTransform="matrix(0.194805,0,0,0.1875,1553.376623,1598.25)">
<stop offset="0.113" style="stop-color:rgb(100%,95.686275%,30.980392%);stop-opacity:1;"/>
<stop offset="0.456" style="stop-color:rgb(100%,59.607843%,5.490196%);stop-opacity:1;"/>
<stop offset="0.622" style="stop-color:rgb(100%,33.72549%,20.392157%);stop-opacity:1;"/>
<stop offset="0.716" style="stop-color:rgb(100%,21.176471%,27.843137%);stop-opacity:1;"/>
<stop offset="0.904" style="stop-color:rgb(89.019608%,8.235294%,52.941176%);stop-opacity:1;"/>
</radialGradient>
<radialGradient id="radial7" gradientUnits="userSpaceOnUse" cx="-7927" cy="-8523" fx="-7927" fy="-8523" r="86.5" gradientTransform="matrix(0.0204545,0.186562,-0.127208,0.0129375,-912.662338,1588.125)">
<stop offset="0" style="stop-color:rgb(100%,95.686275%,30.980392%);stop-opacity:1;"/>
<stop offset="0.06" style="stop-color:rgb(100%,90.980392%,27.843137%);stop-opacity:1;"/>
<stop offset="0.168" style="stop-color:rgb(100%,78.431373%,18.823529%);stop-opacity:1;"/>
<stop offset="0.304" style="stop-color:rgb(100%,59.607843%,5.490196%);stop-opacity:1;"/>
<stop offset="0.356" style="stop-color:rgb(100%,54.509804%,8.627451%);stop-opacity:1;"/>
<stop offset="0.455" style="stop-color:rgb(100%,40.392157%,16.470588%);stop-opacity:1;"/>
<stop offset="0.57" style="stop-color:rgb(100%,21.176471%,27.843137%);stop-opacity:1;"/>
<stop offset="0.737" style="stop-color:rgb(89.019608%,8.235294%,52.941176%);stop-opacity:1;"/>
</radialGradient>
<radialGradient id="radial8" gradientUnits="userSpaceOnUse" cx="-7938" cy="-8508" fx="-7938" fy="-8508" r="73.72" gradientTransform="matrix(0.194805,0,0,0.1875,1553.376623,1598.25)">
<stop offset="0.137" style="stop-color:rgb(100%,95.686275%,30.980392%);stop-opacity:1;"/>
<stop offset="0.48" style="stop-color:rgb(100%,59.607843%,5.490196%);stop-opacity:1;"/>
<stop offset="0.592" style="stop-color:rgb(100%,33.72549%,20.392157%);stop-opacity:1;"/>
<stop offset="0.655" style="stop-color:rgb(100%,21.176471%,27.843137%);stop-opacity:1;"/>
<stop offset="0.904" style="stop-color:rgb(89.019608%,8.235294%,52.941176%);stop-opacity:1;"/>
</radialGradient>
<radialGradient id="radial9" gradientUnits="userSpaceOnUse" cx="-7919" cy="-8504" fx="-7919" fy="-8504" r="80.69" gradientTransform="matrix(0.194805,0,0,0.1875,1553.376623,1598.25)">
<stop offset="0.094" style="stop-color:rgb(100%,95.686275%,30.980392%);stop-opacity:1;"/>
<stop offset="0.231" style="stop-color:rgb(100%,88.235294%,25.490196%);stop-opacity:1;"/>
<stop offset="0.509" style="stop-color:rgb(100%,68.627451%,11.764706%);stop-opacity:1;"/>
<stop offset="0.626" style="stop-color:rgb(100%,59.607843%,5.490196%);stop-opacity:1;"/>
</radialGradient>
<linearGradient id="linear1" gradientUnits="userSpaceOnUse" x1="70.01" y1="12.06" x2="15.27" y2="66.81" gradientTransform="matrix(0.194805,0,0,0.1875,-0.253247,-0.000766125)">
<stop offset="0.167" style="stop-color:rgb(100%,95.686275%,30.980392%);stop-opacity:0.8;"/>
<stop offset="0.266" style="stop-color:rgb(100%,95.686275%,30.980392%);stop-opacity:0.635294;"/>
<stop offset="0.489" style="stop-color:rgb(100%,95.686275%,30.980392%);stop-opacity:0.215686;"/>
<stop offset="0.6" style="stop-color:rgb(100%,95.686275%,30.980392%);stop-opacity:0;"/>
</linearGradient>
</defs>
<g id="surface1">
<path style=" stroke:none;fill-rule:nonzero;fill:url(#linear0);" d="M 14.535156 5.03125 C 14.207031 4.269531 13.542969 3.449219 13.023438 3.191406 C 13.394531 3.882812 13.652344 4.628906 13.785156 5.394531 L 13.789062 5.410156 C 12.933594 3.359375 11.488281 2.535156 10.304688 0.734375 C 10.246094 0.644531 10.183594 0.554688 10.125 0.457031 C 10.09375 0.402344 10.066406 0.351562 10.042969 0.308594 C 9.996094 0.214844 9.957031 0.121094 9.929688 0.0195312 C 9.929688 0.0117188 9.921875 0.00390625 9.914062 0 C 9.910156 0 9.902344 0 9.898438 0 C 9.898438 0 9.898438 0.00390625 9.894531 0.00390625 C 9.894531 0.00390625 9.890625 0.00390625 9.890625 0.0078125 L 9.894531 0 C 7.996094 1.070312 7.351562 3.046875 7.292969 4.039062 C 6.535156 4.089844 5.8125 4.355469 5.214844 4.808594 C 5.152344 4.757812 5.089844 4.710938 5.019531 4.667969 C 4.847656 4.085938 4.84375 3.472656 5 2.890625 C 4.304688 3.214844 3.683594 3.675781 3.183594 4.242188 L 3.179688 4.242188 C 2.878906 3.878906 2.902344 2.671875 2.917969 2.421875 C 2.828125 2.457031 2.746094 2.5 2.667969 2.550781 C 2.402344 2.730469 2.15625 2.9375 1.929688 3.160156 C 1.667969 3.410156 1.433594 3.683594 1.222656 3.972656 L 1.222656 3.976562 L 1.222656 3.972656 C 0.738281 4.636719 0.394531 5.382812 0.210938 6.175781 L 0.199219 6.222656 C 0.183594 6.289062 0.132812 6.609375 0.125 6.675781 C 0.125 6.683594 0.125 6.6875 0.125 6.691406 C 0.0585938 7.023438 0.015625 7.359375 0 7.695312 L 0 7.734375 C 0.0078125 11.503906 3.007812 14.640625 6.910156 14.960938 C 10.8125 15.28125 14.320312 12.675781 14.992188 8.960938 C 15.003906 8.867188 15.015625 8.773438 15.023438 8.679688 C 15.179688 7.441406 15.011719 6.1875 14.535156 5.03125 Z M 5.835938 10.71875 C 5.871094 10.734375 5.902344 10.753906 5.9375 10.769531 L 5.945312 10.773438 C 5.90625 10.753906 5.871094 10.738281 5.835938 10.71875 Z M 13.789062 5.410156 L 13.789062 5.402344 Z M 13.789062 5.410156 "/>
<path style=" stroke:none;fill-rule:nonzero;fill:url(#radial0);" d="M 14.535156 5.03125 C 14.207031 4.269531 13.542969 3.449219 13.023438 3.191406 C 13.394531 3.882812 13.652344 4.628906 13.785156 5.394531 L 13.785156 5.402344 L 13.789062 5.410156 C 14.371094 7.015625 14.285156 8.769531 13.554688 10.316406 C 12.6875 12.101562 10.59375 13.933594 7.316406 13.84375 C 3.773438 13.75 0.652344 11.21875 0.0703125 7.90625 C -0.0351562 7.382812 0.0703125 7.117188 0.125 6.691406 C 0.0507812 7.023438 0.0117188 7.359375 0.00390625 7.695312 L 0.00390625 7.734375 C 0.0078125 11.503906 3.007812 14.640625 6.914062 14.960938 C 10.816406 15.28125 14.324219 12.675781 14.992188 8.960938 C 15.003906 8.867188 15.015625 8.773438 15.027344 8.679688 C 15.183594 7.441406 15.015625 6.1875 14.539062 5.03125 Z M 14.535156 5.03125 "/>
<path style=" stroke:none;fill-rule:nonzero;fill:url(#radial1);" d="M 14.535156 5.03125 C 14.207031 4.269531 13.542969 3.449219 13.023438 3.191406 C 13.394531 3.882812 13.652344 4.628906 13.785156 5.394531 L 13.785156 5.402344 L 13.789062 5.410156 C 14.371094 7.015625 14.285156 8.769531 13.554688 10.316406 C 12.6875 12.101562 10.59375 13.933594 7.316406 13.84375 C 3.773438 13.75 0.652344 11.21875 0.0703125 7.90625 C -0.0351562 7.382812 0.0703125 7.117188 0.125 6.691406 C 0.0507812 7.023438 0.0117188 7.359375 0.00390625 7.695312 L 0.00390625 7.734375 C 0.0078125 11.503906 3.007812 14.640625 6.914062 14.960938 C 10.816406 15.28125 14.324219 12.675781 14.992188 8.960938 C 15.003906 8.867188 15.015625 8.773438 15.027344 8.679688 C 15.183594 7.441406 15.015625 6.1875 14.539062 5.03125 Z M 14.535156 5.03125 "/>
<path style=" stroke:none;fill-rule:nonzero;fill:url(#radial2);" d="M 10.867188 5.882812 C 10.882812 5.894531 10.898438 5.90625 10.914062 5.917969 C 10.722656 5.59375 10.488281 5.296875 10.210938 5.035156 C 7.863281 2.777344 9.597656 0.140625 9.890625 0.00390625 L 9.890625 0 C 7.996094 1.070312 7.351562 3.046875 7.292969 4.035156 C 7.382812 4.03125 7.46875 4.023438 7.558594 4.023438 C 8.929688 4.027344 10.191406 4.738281 10.867188 5.882812 Z M 10.867188 5.882812 "/>
<path style=" stroke:none;fill-rule:nonzero;fill:url(#radial3);" d="M 7.5625 6.335938 C 7.550781 6.515625 6.886719 7.140625 6.65625 7.140625 C 4.507812 7.140625 4.160156 8.390625 4.160156 8.390625 C 4.253906 9.441406 5.015625 10.308594 5.9375 10.765625 C 5.980469 10.789062 6.023438 10.808594 6.066406 10.824219 C 6.136719 10.855469 6.210938 10.886719 6.285156 10.914062 C 6.601562 11.019531 6.933594 11.082031 7.269531 11.09375 C 11.03125 11.265625 11.761719 6.765625 9.046875 5.457031 C 9.6875 5.378906 10.335938 5.527344 10.867188 5.882812 C 10.191406 4.734375 8.925781 4.027344 7.558594 4.023438 C 7.46875 4.023438 7.378906 4.03125 7.292969 4.035156 C 6.535156 4.085938 5.8125 4.355469 5.214844 4.808594 C 5.328125 4.902344 5.460938 5.027344 5.734375 5.285156 C 6.246094 5.773438 7.558594 6.273438 7.5625 6.335938 Z M 7.5625 6.335938 "/>
<path style=" stroke:none;fill-rule:nonzero;fill:url(#radial4);" d="M 7.5625 6.335938 C 7.550781 6.515625 6.886719 7.140625 6.65625 7.140625 C 4.507812 7.140625 4.160156 8.390625 4.160156 8.390625 C 4.253906 9.441406 5.015625 10.308594 5.9375 10.765625 C 5.980469 10.789062 6.023438 10.808594 6.066406 10.824219 C 6.136719 10.855469 6.210938 10.886719 6.285156 10.914062 C 6.601562 11.019531 6.933594 11.082031 7.269531 11.09375 C 11.03125 11.265625 11.761719 6.765625 9.046875 5.457031 C 9.6875 5.378906 10.335938 5.527344 10.867188 5.882812 C 10.191406 4.734375 8.925781 4.027344 7.558594 4.023438 C 7.46875 4.023438 7.378906 4.03125 7.292969 4.035156 C 6.535156 4.085938 5.8125 4.355469 5.214844 4.808594 C 5.328125 4.902344 5.460938 5.027344 5.734375 5.285156 C 6.246094 5.773438 7.558594 6.273438 7.5625 6.335938 Z M 7.5625 6.335938 "/>
<path style=" stroke:none;fill-rule:nonzero;fill:url(#radial5);" d="M 4.863281 4.566406 C 4.921875 4.605469 4.972656 4.636719 5.019531 4.667969 C 4.847656 4.085938 4.839844 3.472656 4.996094 2.890625 C 4.300781 3.214844 3.683594 3.675781 3.179688 4.242188 C 3.214844 4.242188 4.3125 4.222656 4.863281 4.566406 Z M 4.863281 4.566406 "/>
<path style=" stroke:none;fill-rule:nonzero;fill:url(#radial6);" d="M 0.0703125 7.90625 C 0.652344 11.21875 3.773438 13.75 7.3125 13.84375 C 10.59375 13.933594 12.6875 12.101562 13.550781 10.316406 C 14.285156 8.773438 14.367188 7.015625 13.785156 5.410156 L 13.785156 5.40625 C 13.785156 5.398438 13.785156 5.394531 13.785156 5.398438 L 13.789062 5.410156 C 14.054688 7.09375 13.167969 8.722656 11.773438 9.828125 L 11.769531 9.835938 C 9.0625 11.960938 6.46875 11.117188 5.945312 10.773438 C 5.90625 10.757812 5.871094 10.738281 5.835938 10.722656 C 4.253906 9.996094 3.601562 8.609375 3.742188 7.421875 C 2.976562 7.433594 2.277344 7.007812 1.953125 6.339844 C 2.796875 5.839844 3.847656 5.800781 4.730469 6.230469 C 5.625 6.621094 6.640625 6.660156 7.5625 6.339844 C 7.5625 6.28125 6.246094 5.777344 5.734375 5.289062 C 5.460938 5.03125 5.332031 4.90625 5.214844 4.8125 C 5.152344 4.761719 5.089844 4.714844 5.023438 4.667969 C 4.976562 4.640625 4.925781 4.609375 4.867188 4.570312 C 4.316406 4.226562 3.21875 4.246094 3.183594 4.246094 L 3.179688 4.246094 C 2.878906 3.878906 2.902344 2.675781 2.917969 2.425781 C 2.832031 2.460938 2.746094 2.503906 2.667969 2.554688 C 2.402344 2.734375 2.15625 2.9375 1.929688 3.164062 C 1.667969 3.414062 1.433594 3.6875 1.21875 3.976562 C 0.734375 4.636719 0.390625 5.386719 0.207031 6.175781 C 0.203125 6.191406 -0.0664062 7.320312 0.0664062 7.90625 Z M 0.0703125 7.90625 "/>
<path style=" stroke:none;fill-rule:nonzero;fill:url(#radial7);" d="M 10.210938 5.035156 C 10.488281 5.296875 10.722656 5.59375 10.914062 5.917969 C 10.953125 5.949219 10.992188 5.976562 11.027344 6.007812 C 12.738281 7.527344 11.839844 9.671875 11.773438 9.824219 C 13.164062 8.722656 14.054688 7.089844 13.785156 5.40625 C 12.933594 3.355469 11.484375 2.53125 10.304688 0.730469 C 10.242188 0.640625 10.183594 0.550781 10.125 0.453125 C 10.09375 0.398438 10.066406 0.351562 10.042969 0.304688 C 9.992188 0.210938 9.957031 0.117188 9.929688 0.015625 C 9.929688 0.0078125 9.921875 0 9.914062 -0.00390625 C 9.90625 -0.00390625 9.902344 -0.00390625 9.898438 -0.00390625 C 9.898438 -0.00390625 9.894531 0 9.894531 0 C 9.894531 0 9.890625 0 9.890625 0.00390625 C 9.597656 0.136719 7.867188 2.777344 10.210938 5.03125 Z M 10.210938 5.035156 "/>
<path style=" stroke:none;fill-rule:nonzero;fill:url(#radial8);" d="M 11.027344 6.007812 C 10.992188 5.976562 10.953125 5.949219 10.914062 5.917969 C 10.898438 5.90625 10.882812 5.894531 10.867188 5.886719 C 10.335938 5.53125 9.6875 5.378906 9.046875 5.460938 C 11.761719 6.765625 11.03125 11.265625 7.269531 11.097656 C 6.933594 11.085938 6.601562 11.023438 6.285156 10.914062 C 6.210938 10.890625 6.140625 10.859375 6.066406 10.828125 C 6.023438 10.808594 5.980469 10.789062 5.9375 10.769531 L 5.941406 10.773438 C 6.46875 11.117188 9.058594 11.960938 11.769531 9.835938 L 11.773438 9.824219 C 11.839844 9.675781 12.738281 7.527344 11.027344 6.007812 Z M 11.027344 6.007812 "/>
<path style=" stroke:none;fill-rule:nonzero;fill:url(#radial9);" d="M 4.160156 8.390625 C 4.160156 8.390625 4.507812 7.140625 6.65625 7.140625 C 6.886719 7.140625 7.550781 6.515625 7.5625 6.335938 C 6.640625 6.65625 5.621094 6.617188 4.726562 6.226562 C 3.847656 5.796875 2.796875 5.835938 1.953125 6.335938 C 2.273438 7.003906 2.972656 7.429688 3.742188 7.417969 C 3.601562 8.605469 4.253906 9.988281 5.832031 10.71875 C 5.867188 10.734375 5.902344 10.75 5.9375 10.765625 C 5.015625 10.308594 4.253906 9.441406 4.160156 8.390625 Z M 4.160156 8.390625 "/>
<path style=" stroke:none;fill-rule:nonzero;fill:url(#linear1);" d="M 14.535156 5.03125 C 14.207031 4.269531 13.542969 3.449219 13.023438 3.191406 C 13.394531 3.882812 13.652344 4.628906 13.785156 5.394531 L 13.789062 5.410156 C 12.933594 3.359375 11.488281 2.535156 10.304688 0.734375 C 10.246094 0.644531 10.183594 0.554688 10.125 0.457031 C 10.09375 0.402344 10.066406 0.351562 10.042969 0.308594 C 9.996094 0.214844 9.957031 0.121094 9.929688 0.0195312 C 9.929688 0.0117188 9.921875 0.00390625 9.914062 0 C 9.910156 0 9.902344 0 9.898438 0 C 9.898438 0 9.898438 0.00390625 9.894531 0.00390625 C 9.894531 0.00390625 9.890625 0.00390625 9.890625 0.0078125 L 9.894531 0 C 7.996094 1.070312 7.351562 3.046875 7.292969 4.039062 C 7.382812 4.03125 7.46875 4.023438 7.558594 4.023438 C 8.929688 4.027344 10.191406 4.738281 10.867188 5.882812 C 10.335938 5.53125 9.6875 5.378906 9.046875 5.460938 C 11.761719 6.765625 11.035156 11.265625 7.269531 11.097656 C 6.9375 11.082031 6.605469 11.023438 6.289062 10.914062 C 6.214844 10.886719 6.140625 10.859375 6.066406 10.828125 C 6.023438 10.808594 5.980469 10.789062 5.9375 10.769531 L 5.945312 10.773438 C 5.90625 10.753906 5.871094 10.738281 5.835938 10.71875 C 5.871094 10.734375 5.902344 10.753906 5.9375 10.769531 C 5.015625 10.308594 4.257812 9.441406 4.160156 8.390625 C 4.160156 8.390625 4.507812 7.140625 6.65625 7.140625 C 6.886719 7.140625 7.550781 6.519531 7.566406 6.335938 C 7.5625 6.277344 6.246094 5.773438 5.734375 5.289062 C 5.460938 5.03125 5.332031 4.902344 5.214844 4.808594 C 5.152344 4.757812 5.089844 4.710938 5.023438 4.667969 C 4.851562 4.089844 4.84375 3.476562 5 2.890625 C 4.304688 3.214844 3.683594 3.675781 3.183594 4.242188 L 3.179688 4.242188 C 2.878906 3.878906 2.902344 2.675781 2.917969 2.421875 C 2.828125 2.457031 2.746094 2.5 2.667969 2.550781 C 2.402344 2.734375 2.15625 2.9375 1.929688 3.160156 C 1.671875 3.414062 1.433594 3.6875 1.222656 3.976562 C 0.738281 4.636719 0.394531 5.386719 0.210938 6.175781 L 0.199219 6.226562 C 0.183594 6.289062 0.121094 6.613281 0.113281 6.683594 C 0.0546875 7.019531 0.015625 7.355469 0 7.695312 L 0 7.734375 C 0.0078125 11.503906 3.007812 14.640625 6.910156 14.960938 C 10.8125 15.28125 14.320312 12.675781 14.992188 8.960938 C 15.003906 8.867188 15.015625 8.777344 15.027344 8.679688 C 15.179688 7.445312 15.011719 6.191406 14.535156 5.03125 Z M 13.789062 5.402344 L 13.789062 5.410156 Z M 13.789062 5.402344 "/>
</g>
</svg>
