<?xml version="1.0" encoding="UTF-8"?>
<svg xmlns="http://www.w3.org/2000/svg" xmlns:xlink="http://www.w3.org/1999/xlink" width="15px" height="15px" viewBox="0 0 15 15" version="1.1">
<defs>
<linearGradient id="linear0" gradientUnits="userSpaceOnUse" x1="-1073.2" y1="126.85" x2="-1073.2" y2="0.0000000000001279" gradientTransform="matrix(0.075,0,0,0.075,89.7453,1.152673)">
<stop offset="0.011" style="stop-color:rgb(10.588235%,22.352941%,40.392157%);stop-opacity:1;"/>
<stop offset="0.467" style="stop-color:rgb(7.45098%,70.980392%,91.764706%);stop-opacity:1;"/>
<stop offset="0.9945" style="stop-color:rgb(0%,16.862745%,36.078431%);stop-opacity:1;"/>
</linearGradient>
<linearGradient id="linear1" gradientUnits="userSpaceOnUse" x1="-1073.2" y1="126.85" x2="-1073.2" y2="0.0000000000001279" gradientTransform="matrix(-0.075,0,0,0.075,-74.609101,1.152598)">
<stop offset="0.011" style="stop-color:rgb(10.588235%,22.352941%,40.392157%);stop-opacity:1;"/>
<stop offset="0.467" style="stop-color:rgb(7.45098%,70.980392%,91.764706%);stop-opacity:1;"/>
<stop offset="0.9945" style="stop-color:rgb(0%,16.862745%,36.078431%);stop-opacity:1;"/>
</linearGradient>
</defs>
<g id="surface1">
<path style=" stroke:none;fill-rule:nonzero;fill:url(#linear0);" d="M 11.386719 2.21875 C 11.390625 2.316406 11.25 2.289062 11.25 2.390625 C 11.25 5.28125 7.757812 9.691406 4.375 10.542969 L 4.375 10.667969 C 8.871094 10.253906 14.015625 5.582031 14.128906 1.152344 Z M 11.386719 2.21875 "/>
<path style=" stroke:none;fill-rule:nonzero;fill:rgb(91.372549%,42.745098%,12.156863%);fill-opacity:1;" d="M 10.027344 2.574219 C 10.03125 2.671875 10.035156 2.769531 10.035156 2.871094 C 10.035156 5.761719 7.730469 9.65625 4.347656 10.507812 L 4.347656 10.632812 C 8.777344 10.421875 12.285156 5.90625 12.285156 2.441406 C 12.285156 2.261719 12.273438 2.085938 12.253906 1.914062 Z M 10.027344 2.574219 "/>
<path style=" stroke:none;fill-rule:nonzero;fill:rgb(85.098039%,32.941176%,11.764706%);fill-opacity:1;" d="M 12.277344 1.871094 L 11.707031 2.074219 C 11.707031 2.148438 11.710938 2.246094 11.710938 2.316406 C 11.710938 5.410156 8.914062 9.683594 5.164062 10.351562 C 4.921875 10.433594 4.601562 10.507812 4.34375 10.570312 L 4.34375 10.695312 C 9.238281 10.277344 12.675781 5.304688 12.277344 1.871094 Z M 12.277344 1.871094 "/>
<path style=" stroke:none;fill-rule:nonzero;fill:url(#linear1);" d="M 3.75 2.214844 C 3.746094 2.316406 3.886719 2.289062 3.886719 2.390625 C 3.886719 5.28125 7.375 9.691406 10.761719 10.542969 L 10.761719 10.667969 C 6.265625 10.253906 1.121094 5.582031 1.007812 1.152344 L 3.75 2.21875 Z M 3.75 2.214844 "/>
<path style=" stroke:none;fill-rule:nonzero;fill:rgb(62.745098%,80.784314%,40.392157%);fill-opacity:1;" d="M 5.109375 2.574219 C 5.105469 2.671875 5.101562 2.769531 5.101562 2.871094 C 5.101562 5.761719 7.402344 9.65625 10.789062 10.507812 L 10.789062 10.632812 C 6.359375 10.421875 2.851562 5.90625 2.851562 2.441406 C 2.851562 2.261719 2.863281 2.085938 2.878906 1.914062 Z M 5.109375 2.574219 "/>
<path style=" stroke:none;fill-rule:nonzero;fill:rgb(26.27451%,58.823529%,22.352941%);fill-opacity:1;" d="M 2.859375 1.871094 L 3.429688 2.074219 C 3.425781 2.148438 3.425781 2.246094 3.425781 2.316406 C 3.425781 5.410156 6.222656 9.683594 9.972656 10.351562 C 10.214844 10.433594 10.535156 10.507812 10.789062 10.570312 L 10.789062 10.695312 C 5.898438 10.277344 2.457031 5.304688 2.859375 1.871094 Z M 2.859375 1.871094 "/>
<path style=" stroke:none;fill-rule:nonzero;fill:rgb(0%,0%,0%);fill-opacity:1;" d="M 1.949219 12.90625 L 0.945312 11.808594 L 1.816406 11.808594 L 2.503906 12.578125 L 3.1875 11.808594 L 4.0625 11.808594 L 3.054688 12.90625 L 4.136719 14.011719 L 3.230469 14.011719 L 2.503906 13.210938 L 1.777344 14.011719 L 0.867188 14.011719 Z M 1.949219 12.90625 "/>
<path style=" stroke:none;fill-rule:nonzero;fill:rgb(0%,0%,0%);fill-opacity:1;" d="M 4.386719 11.808594 L 5.425781 11.808594 L 6.191406 13.226562 L 6.953125 11.808594 L 7.992188 11.808594 L 7.992188 14.011719 L 7.332031 14.011719 L 7.332031 12.429688 L 7.328125 12.429688 L 6.441406 14.011719 L 5.9375 14.011719 L 5.050781 12.429688 L 5.046875 12.429688 L 5.046875 14.011719 L 4.386719 14.011719 Z M 4.386719 11.808594 "/>
<path style=" stroke:none;fill-rule:nonzero;fill:rgb(0%,0%,0%);fill-opacity:1;" d="M 8.449219 11.808594 L 10.289062 11.808594 C 10.933594 11.808594 11.085938 12.128906 11.085938 12.5625 L 11.085938 12.75 C 11.085938 13.078125 10.945312 13.457031 10.46875 13.457031 L 9.125 13.457031 L 9.125 14.011719 L 8.449219 14.011719 Z M 9.125 12.910156 L 10.175781 12.910156 C 10.332031 12.910156 10.394531 12.804688 10.394531 12.675781 L 10.394531 12.589844 C 10.394531 12.441406 10.320312 12.355469 10.117188 12.355469 L 9.125 12.355469 Z M 9.125 12.910156 "/>
<path style=" stroke:none;fill-rule:nonzero;fill:rgb(0%,0%,0%);fill-opacity:1;" d="M 11.453125 11.808594 L 13.296875 11.808594 C 13.9375 11.808594 14.09375 12.128906 14.09375 12.5625 L 14.09375 12.75 C 14.09375 13.078125 13.949219 13.457031 13.472656 13.457031 L 12.128906 13.457031 L 12.128906 14.011719 L 11.453125 14.011719 Z M 12.128906 12.910156 L 13.179688 12.910156 C 13.335938 12.910156 13.398438 12.804688 13.398438 12.675781 L 13.398438 12.589844 C 13.398438 12.441406 13.324219 12.355469 13.121094 12.355469 L 12.128906 12.355469 Z M 12.128906 12.910156 "/>
</g>
</svg>
